<svg xmlns="http://www.w3.org/2000/svg" xml:space="preserve" viewBox="0 0 470.8 576"><linearGradient id="a" x1="466.87" x2="173.93" y1="555.38" y2="65.26" gradientUnits="userSpaceOnUse"><stop offset=".03" stop-color="#122a4e"/><stop offset=".26" stop-color="#00509a"/><stop offset=".84" stop-color="#f33"/><stop offset="1" stop-color="#f63"/></linearGradient><path fill="url(#a)" d="M92.5 22.2c-19.1-5.2-34.6-9.6-47.6-15-.5-.2-1.1.2-.9.8 5.5 23.2 20.2 47.4 52.1 57.6 27.5 8.8 46.6 11.9 61.2 22.2.5.3 1.1 0 1.1-.6-2.6-32.9-27.5-54.5-65.9-65m374.8 250.7c-2 23.4-10.4 43.9-22.9 60.6-.4.5-1.2.3-1.2-.4-1.4-42.6-36.8-85.1-90-108.2-.7-.3-1.3.6-.7 1.2 32.8 30.2 48 69.5 35.5 103.8-18.6 51.3-92.1 71.6-164.1 45.4-44.8-16.3-78.4-46.7-92.9-79.7-.2-.5.2-1 .7-1 7.1 1 14.4 1.6 21.9 1.6 13.2 0 26-1.7 38.2-4.7.7-.2.7-1.1 0-1.3C80.9 255 73.1 152.5 2.3 108.9c-.5-.3-.4-1.2.2-1.3 12.5-2.1 25.4-3.4 38.4-3.8 56.4-1.8 109.5 12.8 154.7 39.4.5.3 1.2-.2 1-.8a235 235 0 0 1-9.9-46.1c-.1-.6.7-1 1.2-.6 25.1 24.7 55.4 44 89.2 56.1.6.2 1.1-.4.8-.9a237 237 0 0 1-21.5-83.1c0-.7.8-1 1.3-.5 17.9 24.6 46.6 44.4 107.7 66.5 60.3 21.8 108.3 66.2 101.9 139.1"/><linearGradient id="b" x1="397.16" x2="104.22" y1="597.05" y2="106.92" gradientUnits="userSpaceOnUse"><stop offset=".03" stop-color="#122a4e"/><stop offset=".26" stop-color="#00509a"/><stop offset=".84" stop-color="#f33"/><stop offset="1" stop-color="#f63"/></linearGradient><path fill="url(#b)" d="M352.8 453.5c-20.5 16.1-51.7 21.2-83 13.3-.4-.1-.8.1-.9.5s0 .8.3 1c8.1 4.7 17 8.1 26.4 10.2 9.8 2.2 20 2.8 29.7 1.8.7-.1 1.1.9.4 1.3-20.2 10.3-47.1 9.2-70.7-3.4-21.6-11.5-36.7-30.6-41.2-51.4-.1-.6.5-1 1-.7 16 9.7 33.5 17.1 52.1 22.1 28.7 7.7 58 9.2 85.3 4.2.8-.2 1.2.7.6 1.1M315 501.6a43.6 43.6 0 0 1-21 12.3c-12.5 3.3-26.2 1.7-38.5-4.4s-21.9-16.1-26.9-28c-.4-1.1-.8-2.1-1.2-3.2-.1-.3 0-.6.3-.8.2-.2.6-.2.8 0 3.2 2.4 6.5 4.7 9.8 6.7 24.2 14.8 51.6 20.5 76.1 16.2.6 0 1 .8.6 1.2m124-137.4c-.2-.6-1-.6-1.3 0-20.9 51-96.3 76-175.4 56-50.7-12.8-91.3-41.2-112.4-74.4-.3-.5-1-.4-1.2.1a158 158 0 0 0-15.4 80.7c4.3 57.5 40 106.5 89.6 130.1l11.5-45.5c.1-.5.7-.7 1.1-.3 4.7 4 10 7.6 15.9 10.5 14.4 7.1 29.8 9.2 44.1 7 .5-.1.9.4.8.8l-10.7 42.6c88.9 2.5 161.7-68.8 161.7-157.1 0-17.8-3-34.7-8.3-50.5"/></svg>