<svg xmlns="http://www.w3.org/2000/svg" xml:space="preserve" viewBox="0 0 792 313.9"><linearGradient id="a" x1="786.82" x2="624.31" y1="305.13" y2="33.23" gradientUnits="userSpaceOnUse"><stop offset=".03" stop-color="#122a4d"/><stop offset=".26" stop-color="#005394"/><stop offset=".84" stop-color="#f33"/><stop offset="1" stop-color="#f63"/></linearGradient><path fill="url(#a)" d="M579.2 9.4C568.6 6.5 559.9 4 552.7 1c-.3-.1-.6.1-.5.4 3 12.9 11.2 26.3 28.9 32 15.2 4.9 25.8 6.6 33.9 12.3.3.2.6 0 .6-.3-1.3-18.2-15.2-30.2-36.4-36m207.9 139c-1.1 13-5.8 24.4-12.7 33.6-.2.3-.7.1-.7-.2-.8-23.7-20.4-47.2-50-60-.4-.2-.7.4-.4.6 18.2 16.7 26.6 38.6 19.7 57.6-10.3 28.4-51.1 39.7-91 25.2-24.8-9-43.5-25.9-51.6-44.2-.1-.3.1-.6.4-.5 4 .6 8 .9 12.1.9 7.3 0 14.4-.9 21.2-2.6.4-.1.4-.6 0-.7-61.5-19.5-65.8-76.3-105.1-100.5-.3-.2-.2-.7.1-.7q10.5-1.8 21.3-2.1c31.3-1 60.7 7.1 85.8 21.9.3.2.6-.1.5-.4-2.6-8.2-4.5-16.8-5.5-25.6 0-.4.4-.6.6-.3 13.9 13.7 30.7 24.4 49.5 31.1.3.1.6-.2.5-.5-6.6-14.2-10.7-29.7-11.9-46.1 0-.4.5-.6.7-.3 9.9 13.6 25.8 24.6 59.7 36.9 33.7 11.9 60.3 36.5 56.8 76.9"/><linearGradient id="b" x1="748.15" x2="585.64" y1="328.25" y2="56.35" gradientUnits="userSpaceOnUse"><stop offset=".03" stop-color="#122a4d"/><stop offset=".26" stop-color="#005394"/><stop offset=".84" stop-color="#f33"/><stop offset="1" stop-color="#f63"/></linearGradient><path fill="url(#b)" d="M723.6 248.6c-11.4 8.9-28.7 11.8-46.1 7.4-.2-.1-.4.1-.5.3s0 .4.2.6c4.5 2.6 9.5 4.5 14.7 5.7 5.4 1.2 11.1 1.6 16.5 1 .4 0 .6.5.2.7-11.2 5.7-26.1 5.1-39.2-1.9-12-6.4-20.4-17-22.8-28.5-.1-.3.3-.6.6-.4 8.9 5.4 18.6 9.5 28.9 12.3 15.9 4.3 32.2 5.1 47.3 2.3.2-.2.5.3.2.5m-21 26.7c-3 3.2-7 5.6-11.7 6.8-6.9 1.8-14.5 1-21.4-2.4-6.8-3.4-12.1-8.9-14.9-15.5-.2-.6-.5-1.2-.7-1.8-.1-.2 0-.3.1-.4s.3-.1.4 0c1.8 1.3 3.6 2.6 5.4 3.7 13.4 8.2 28.6 11.4 42.2 9 .6-.1.8.4.6.6m68.8-76.2c-.1-.3-.6-.3-.7 0-11.6 28.3-53.4 42.1-97.3 31.1-28.2-7.1-50.7-22.9-62.3-41.3-.2-.3-.5-.2-.7 0a87 87 0 0 0-8.5 44.8c2.4 31.9 22.2 59.1 49.7 72.2l6.4-25.3c.1-.3.4-.4.6-.2 2.6 2.2 5.6 4.2 8.8 5.8a41 41 0 0 0 24.5 3.9c.3 0 .5.2.4.5l-6 23.6C735.5 315.5 776 276 776 227c0-9.8-1.7-19.2-4.6-27.9"/><path fill="#122a4e" d="M339.9 212.4v-65.2l45.3-.1 18.5-42.8H220.4l-29.2 91.3-27.6-91.3h-49.2l-29.2 90.2-27.6-90.2h-55l50.7 158.6h57.3l27-84.7 25.6 84.7h57.3l37.1-115.8h33.1l.3 116.1h49.3l-.1-9.1zm141.6-108.1H429l-69.3 158.6H414l10.6-27.6h60.3l10.6 27.6h55.3zm-42.1 92.5 15.4-39.9 15.4 39.9z"/></svg>